{
    "accessors" : [
        {
            "bufferView" : 0,
            "componentType" : 5123,
            "count" : 2304,
            "max" : [
                455
            ],
            "min" : [
                0
            ],
            "type" : "SCALAR"
        },
        {
            "bufferView" : 1,
            "componentType" : 5126,
            "count" : 456,
            "max" : [
                9.463033676147461,
                5.7538604736328125,
                10.548728942871094
            ],
            "min" : [
                -9.463033676147461,
                -6.206981182098389,
                -7.830449104309082
            ],
            "type" : "VEC3"
        },
        {
            "bufferView" : 2,
            "componentType" : 5126,
            "count" : 456,
            "max" : [
                0.9920651912689209,
                0.9998779296875,
                0.9983519911766052
            ],
            "min" : [
                -0.9920651912689209,
                -0.999359130859375,
                -1.0
            ],
            "type" : "VEC3"
        },
        {
            "bufferView" : 3,
            "componentType" : 5126,
            "count" : 456,
            "max" : [
                1.0,
                0.99934983253479,
                0.30732545256614685,
                1.0
            ],
            "min" : [
                -1.0,
                -0.9993495941162109,
                -0.3073252737522125,
                -1.0
            ],
            "type" : "VEC4"
        },
        {
            "bufferView" : 4,
            "componentType" : 5126,
            "count" : 456,
            "max" : [
                1.0346317291259766,
                1.1315187811851501
            ],
            "min" : [
                -0.11138081550598145,
                0.011090278625488281
            ],
            "type" : "VEC2"
        }
    ],
    "asset" : {
        "generator" : "Khronos Blender glTF 2.0 exporter",
        "version" : "2.0"
    },
    "bufferViews" : [
        {
            "buffer" : 0,
            "byteLength" : 4608,
            "byteOffset" : 0,
            "target" : 34963
        },
        {
            "buffer" : 0,
            "byteLength" : 5472,
            "byteOffset" : 4608,
            "target" : 34962
        },
        {
            "buffer" : 0,
            "byteLength" : 5472,
            "byteOffset" : 10080,
            "target" : 34962
        },
        {
            "buffer" : 0,
            "byteLength" : 7296,
            "byteOffset" : 15552,
            "target" : 34962
        },
        {
            "buffer" : 0,
            "byteLength" : 3648,
            "byteOffset" : 22848,
            "target" : 34962
        }
    ],
    "buffers" : [
        {
            "byteLength" : 26496,
            "uri" : "Heart.bin"
        }
    ],
    "images" : [
        {
            "name" : "file2",
            "uri" : "file2.jpg"
        }
    ],
    "materials" : [
        {
            "name" : "lambert1",
            "pbrMetallicRoughness" : {
                "baseColorFactor" : [
                    0.800000011920929,
                    0.800000011920929,
                    0.800000011920929,
                    1.0
                ],
                "baseColorTexture" : {
                    "index" : 0
                },
                "metallicFactor" : 0.0
            }
        }
    ],
    "meshes" : [
        {
            "name" : "Untitled",
            "primitives" : [
                {
                    "attributes" : {
                        "NORMAL" : 2,
                        "POSITION" : 1,
                        "TANGENT" : 3,
                        "TEXCOORD_0" : 4
                    },
                    "indices" : 0,
                    "material" : 0
                }
            ]
        }
    ],
    "nodes" : [
        {
            "mesh" : 0,
            "name" : "pCube1",
            "rotation" : [
                0.7071068286895752,
                0.0,
                -0.0,
                0.7071067094802856
            ],
            "scale" : [
                0.04216255620121956,
                0.04216255620121956,
                0.04216255620121956
            ],
            "translation" : [
                0.0,
                0.05154385417699814,
                -0.0
            ]
        }
    ],
    "samplers" : [
        {}
    ],
    "scene" : 0,
    "scenes" : [
        {
            "name" : "Scene",
            "nodes" : [
                0
            ]
        }
    ],
    "textures" : [
        {
            "sampler" : 0,
            "source" : 0
        }
    ]
}
